<?xml version="1.0" encoding="UTF-8" standalone="no"?>
<svg width="26px" height="37px" viewBox="0 0 26 37" version="1.1" xmlns="http://www.w3.org/2000/svg" xmlns:xlink="http://www.w3.org/1999/xlink" xmlns:sketch="http://www.bohemiancoding.com/sketch/ns">
    <!-- Generator: Sketch 3.4 (15588) - http://www.bohemiancoding.com/sketch -->
    <title>Artboard 19</title>
    <desc>Created with Sketch.</desc>
    <defs></defs>
    <g id="FINDA---Responsive---Reviewed" stroke="none" stroke-width="1" fill="none" fill-rule="evenodd" sketch:type="MSPage">
        <g id="Artboard-19" sketch:type="MSArtboardGroup">
            <g id="Oval-1-Copy-2-+-Imported-Layers-Copy-4" sketch:type="MSLayerGroup">
                <ellipse id="Oval-1-Copy-2" fill="#FFFFFF" sketch:type="MSShapeGroup" cx="13.5" cy="13" rx="8" ry="8"></ellipse>
                <path d="M13,36.6896552 L24.9028,18.3448276 C25.5983,16.7370345 26,14.972 26,13.1034483 C26,5.86641379 20.1799,0 13,0 C5.8201,0 0,5.86641379 0,13.1034483 C0,14.972 0.3965,16.7370345 1.0972,18.3448276 L13,36.6896552 L13,36.6896552 Z M13,7.86206897 C15.8691,7.86206897 18.2,10.2115172 18.2,13.1034483 C18.2,16.0006207 15.8691,18.3448276 13,18.3448276 C10.1257,18.3448276 7.8,16.0006207 7.8,13.1034483 C7.8,10.2115172 10.1257,7.86206897 13,7.86206897 L13,7.86206897 Z" id="Imported-Layers-Copy-4" fill="#26B4BC" sketch:type="MSShapeGroup"></path>
            </g>
        </g>
    </g>
</svg>