<?xml version="1.0" encoding="UTF-8" standalone="no"?>
<svg width="48px" height="16px" viewBox="0 0 48 16" version="1.1" xmlns="http://www.w3.org/2000/svg" xmlns:xlink="http://www.w3.org/1999/xlink" xmlns:sketch="http://www.bohemiancoding.com/sketch/ns">
    <!-- Generator: Sketch 3.4.1 (15681) - http://www.bohemiancoding.com/sketch -->
    <title>Finda50</title>
    <desc>Created with Sketch.</desc>
    <defs></defs>
    <g id="FINDA---Responsive---Reviewed" stroke="none" stroke-width="1" fill="none" fill-rule="evenodd" sketch:type="MSPage">
        <g id="SRP-MAP-1650" sketch:type="MSArtboardGroup" transform="translate(-1338.000000, -936.000000)" fill="#BDDC05">
            <g id="Footer-Bg-Copy-+-Group-Copy-2-+-COPYRIGHT-2015-FINDA-Copy" sketch:type="MSLayerGroup" transform="translate(0.000000, 920.000000)">
                <g id="Finda50" transform="translate(1338.000000, 16.000000)" sketch:type="MSShapeGroup">
                    <path d="M4,16 L2,16 L2,10 L0,10 L0,8 L2,8 L2,4 L3,4 L3,3 L4,3 L4,2 L8,2 L8,4 L4,4 L4,8 L6,8 L6,10 L4,10 L4,16 Z" id="Path-87"></path>
                    <rect id="Rectangle-71" x="10" y="6" width="2" height="10"></rect>
                    <path d="M14,16 L14,6 L22,6 L22,7 L23,7 L23,8 L24,8 L24,16 L22,16 L22,8 L16,8 L16,16 L14,16 Z" id="Path-88"></path>
                    <path d="M36,2 L34,2 L34,6 L28,6 L28,7 L27,7 L27,8 L26,8 L26,14 L27,14 L27,15 L28,15 L28,16 L36,16 L36,2 Z M28,8 L34,8 L34,14 L28,14 L28,8 Z" id="Path-89"></path>
                    <path d="M40,8 L46,8 L46,10 L40,10 L40,11 L39,11 L39,12 L38,12 L38,14 L39,14 L39,15 L40,15 L40,16 L48,16 C48,16 47.993897,10.6685519 48,8 C48.0000183,7.99485247 47,8 47,8 L47,7 L46,7 L46,6 L40,6 L40,8 Z M40,12 L46,12 L46,14 L40,14 L40,12 Z" id="Path-90"></path>
                    <path d="M11.2121582,4.83026123 L11.661377,4.70068359 L11.0116577,3.20916748 L12.2427368,3.31829834 L9.77484131,0.723693848 L9.75726318,4.13623047 L10.59021,3.38989258 L11.2121582,4.83026123 Z" id="Path-91"></path>
                </g>
            </g>
        </g>
    </g>
</svg>